<?xml version="1.0" encoding="utf-8"?>
<svg width="309.952" height="99.843" viewBox="0 0 309.952 99.843" fill="none" xmlns="http://www.w3.org/2000/svg">
  <g id="aigake logo" transform="translate(0 0)">
    <g id="グループ">
      <path id="シェイプ" d="M6.85686 69.3488Q8.31617 69.592 9.84966 69.592Q12.4009 69.592 14.7923 68.8087Q17.2134 68.0155 19.4695 66.2517Q21.639 64.5555 23.804 61.8106Q25.9398 59.1027 27.9722 55.1507Q29.973 51.2604 31.8877 46.0318L31.9153 45.9563L34.2564 37.521L36.5106 29.5218L39.0425 20.5875L39.6584 18.388L46.9592 45.7642L46.9893 45.8471Q47.0557 46.0296 47.1916 46.606Q47.3378 47.2263 47.4358 47.5344Q47.6751 48.2866 47.8802 49.0383L47.8958 49.0956L47.9148 49.1519Q49.8167 54.7845 51.4748 58.506Q53.1876 62.3502 54.9808 64.7282Q56.9094 67.2856 59.111 68.4305Q61.3448 69.592 63.9217 69.592Q67.831 69.592 70.6972 67.1289Q73.4115 64.7963 74.9561 60.3251Q76.4031 56.1365 76.9287 49.9264Q77.0979 48.2938 75.8982 47.1864Q74.9312 46.2937 73.4628 46.1602L73.3724 46.152L73.2817 46.152Q71.607 46.152 70.6417 46.876Q69.4984 47.7335 69.3459 49.411Q68.9321 53.9623 68.018 57.0093Q67.1765 59.8146 66.0418 61.0627Q65.2249 61.9613 64.0626 61.9212L64.0282 61.92L63.9937 61.92Q63.2004 61.92 62.4287 61.3627Q61.4697 60.6701 60.4218 58.9036Q59.2447 56.9193 57.9359 53.5785Q56.5883 50.1385 54.9528 45.1612Q53.4536 40.5208 52.0969 35.6295Q50.7382 30.7308 49.5942 25.9762Q48.4471 21.2085 47.5189 16.9605L45.9018 9.27085L44.7904 3.78551Q44.424 1.75409 43.055 0.817383Q41.8604 -9.53674e-07 40.0177 0Q38.2601 0 37.0003 0.839897Q35.5522 1.80531 35.1765 3.76714Q32.955 14.2997 30.8789 22.497Q28.8048 30.6862 26.8417 36.9324Q24.8927 43.1338 22.9897 47.5389Q21.1039 51.9041 19.3091 54.8033Q17.5752 57.6043 15.8941 59.1885Q14.3085 60.6826 12.8037 61.2614Q11.2783 61.848 9.70566 61.848Q8.30269 61.848 7.28774 61.5871Q6.2566 61.3219 5.24144 60.7845L5.22086 60.7736L5.20004 60.7632Q3.82074 60.0735 2.44685 60.6231Q1.20085 61.1215 0.428798 62.6656L0.412242 62.6987L0.396924 62.7324Q-0.321433 64.3128 0.260299 65.7255Q0.775396 66.9765 1.94221 67.6006Q2.88949 68.1902 4.12114 68.6418Q5.37651 69.1021 6.85686 69.3488Z" fill="#A47764" fill-rule="evenodd" transform="matrix(0.966 0.259 -0.259 0.966 18.012 0)" />
      <path id="パス" d="M2.752 6.33601C1.81333 6.33601 1.12 6.06934 0.671997 5.536C0.223999 5.00267 0 4.22401 0 3.2C0 2.13334 0.223999 1.33334 0.671997 0.800003C1.12 0.26667 1.81333 0 2.752 0C3.69066 0 4.39466 0.266666 4.864 0.800003C5.33333 1.33334 5.568 2.13334 5.568 3.2C5.568 4.26667 5.33333 5.05601 4.864 5.568C4.39466 6.08 3.69066 6.33601 2.752 6.33601L2.752 6.33601Z" fill="#D19C97" fill-rule="evenodd" transform="translate(32.455 61.451)" />
      <path id="パス" d="M2.752 6.336C1.81333 6.33601 1.12 6.06934 0.671997 5.536C0.223999 5.00267 0 4.224 0 3.2C0 2.13334 0.223999 1.33334 0.671997 0.800003C1.12 0.26667 1.81333 0 2.752 0C3.69066 0 4.39466 0.266663 4.864 0.800003C5.33333 1.33334 5.568 2.13334 5.568 3.2C5.568 4.26667 5.33333 5.056 4.864 5.568C4.39466 6.08 3.69066 6.336 2.752 6.336L2.752 6.336Z" fill="#E4C7B7" fill-rule="evenodd" transform="translate(44 67)" />
    </g>
    <path id="シェイプ" d="M11.776 58.56C9.51466 58.56 7.488 57.9413 5.696 56.704C3.904 55.4667 2.50667 53.6533 1.504 51.264C0.501335 48.8747 0 45.952 0 42.496C0 40.32 0.202667 38.304 0.608002 36.448C1.01334 34.592 1.62133 32.9173 2.432 31.424C3.24267 29.9307 4.23466 28.6507 5.408 27.584C6.58134 26.5173 7.94666 25.696 9.504 25.12C11.0613 24.544 12.8 24.256 14.72 24.256C16.384 24.256 17.984 24.5227 19.52 25.056C21.056 25.5893 22.592 26.368 24.128 27.392L24.128 30.656C22.4213 29.376 20.8107 28.512 19.296 28.064C17.7813 27.616 16.2987 27.392 14.848 27.392C13.44 27.392 12.1493 27.6053 10.976 28.032C9.80267 28.4587 8.75733 29.0773 7.84 29.888C6.92267 30.6987 6.15467 31.7013 5.536 32.896C4.91734 34.0907 4.43733 35.4667 4.096 37.024C3.75467 38.5813 3.584 40.3413 3.584 42.304C3.584 44.8213 3.904 47.0613 4.544 49.024C5.184 50.9867 6.15467 52.5333 7.456 53.664C8.75733 54.7947 10.4107 55.36 12.416 55.36C13.9947 55.36 15.5093 54.8907 16.96 53.952C18.4107 53.0133 19.7227 51.4987 20.896 49.408C22.0693 47.3173 22.976 44.5653 23.616 41.152L24.832 44.288C24.0213 47.9573 22.9013 50.8373 21.472 52.928C20.0427 55.0187 18.496 56.48 16.832 57.312C15.168 58.144 13.4827 58.56 11.776 58.56L11.776 58.56ZM30.656 58.56C29.376 58.56 28.256 58.368 27.296 57.984C26.336 57.6 25.5573 57.0347 24.96 56.288C24.3627 55.5413 23.9147 54.6133 23.616 53.504C23.3173 52.3947 23.168 51.0933 23.168 49.6L23.168 25.728C23.168 25.3013 23.3173 24.992 23.616 24.8C23.9147 24.608 24.3413 24.512 24.896 24.512C25.4507 24.512 25.8667 24.608 26.144 24.8C26.4213 24.992 26.56 25.3013 26.56 25.728L26.56 49.536C26.56 51.5413 26.8693 53.0347 27.488 54.016C28.1067 54.9973 29.2907 55.488 31.04 55.488C31.3813 55.488 31.6373 55.648 31.808 55.968C31.9787 56.288 32.0533 56.64 32.032 57.024C32.0107 57.408 31.8933 57.76 31.68 58.08C31.4667 58.4 31.1253 58.56 30.656 58.56L30.656 58.56ZM31.464 58.56C30.9947 58.56 30.6427 58.4 30.408 58.08C30.1733 57.76 30.0667 57.408 30.088 57.024C30.1093 56.64 30.2693 56.288 30.568 55.968C30.8667 55.648 31.2933 55.488 31.848 55.488C33.2987 55.488 34.664 55.168 35.944 54.528C37.224 53.888 38.408 52.96 39.496 51.744C40.584 50.528 41.5867 49.0667 42.504 47.36C43.4213 45.6533 44.2427 43.712 44.968 41.536C45.096 41.1093 45.352 40.896 45.736 40.896C46.12 40.896 46.4507 41.0453 46.728 41.344C47.0053 41.6427 47.08 42.0053 46.952 42.432C46.2693 44.7787 45.4373 46.9333 44.456 48.896C43.4747 50.8587 42.3547 52.5653 41.096 54.016C39.8373 55.4667 38.408 56.5867 36.808 57.376C35.208 58.1653 33.4267 58.56 31.464 58.56L31.464 58.56ZM53.328 58.56C51.92 58.56 50.7147 58.368 49.712 57.984C48.7093 57.6 47.92 57.0133 47.344 56.224C46.768 55.4347 46.352 54.4747 46.096 53.344C45.84 52.2133 45.712 50.9013 45.712 49.408L45.712 25.728C45.712 25.3013 45.8507 24.992 46.128 24.8C46.4053 24.608 46.8 24.512 47.312 24.512C47.9093 24.512 48.3467 24.608 48.624 24.8C48.9013 24.992 49.04 25.3013 49.04 25.728L49.04 49.28C49.04 51.456 49.36 53.0347 50 54.016C50.64 54.9973 51.8987 55.488 53.776 55.488C54.16 55.488 54.448 55.648 54.64 55.968C54.832 56.288 54.9173 56.64 54.896 57.024C54.8747 57.408 54.736 57.76 54.48 58.08C54.224 58.4 53.84 58.56 53.328 58.56L53.328 58.56ZM47.312 13.76C46.3733 13.76 45.68 13.4933 45.232 12.96C44.784 12.4267 44.56 11.648 44.56 10.624C44.56 9.55734 44.784 8.75734 45.232 8.224C45.68 7.69067 46.3733 7.424 47.312 7.424C48.2507 7.424 48.9547 7.69067 49.424 8.224C49.8933 8.75734 50.128 9.55734 50.128 10.624C50.128 11.6907 49.8933 12.48 49.424 12.992C48.9547 13.504 48.2507 13.76 47.312 13.76L47.312 13.76ZM54.264 58.56C53.7947 58.56 53.4427 58.4 53.208 58.08C52.9733 57.76 52.8667 57.408 52.888 57.024C52.9093 56.64 53.0693 56.288 53.368 55.968C53.6667 55.648 54.0933 55.488 54.648 55.488C55.9707 55.488 57.1973 55.1787 58.328 54.56C59.4587 53.9413 60.4613 53.1093 61.336 52.064C62.2107 51.0187 62.9253 49.7813 63.48 48.352C64.0347 46.9227 64.44 45.376 64.696 43.712C64.7387 43.2427 64.952 42.944 65.336 42.816C65.72 42.688 66.0827 42.7093 66.424 42.88C66.7653 43.0507 66.9147 43.3707 66.872 43.84C66.6587 45.888 66.2107 47.7973 65.528 49.568C64.8453 51.3387 63.96 52.896 62.872 54.24C61.784 55.584 60.5147 56.64 59.064 57.408C57.6133 58.176 56.0133 58.56 54.264 58.56L54.264 58.56ZM80.224 82.944C77.8347 82.944 75.8827 82.2507 74.368 80.864C72.8533 79.4773 72.096 77.5893 72.096 75.2C72.096 73.9627 72.2986 72.8 72.704 71.712C73.1093 70.624 73.7173 69.5893 74.528 68.608C75.3387 67.6267 76.3307 66.656 77.504 65.696C78.6773 64.736 80.032 63.744 81.568 62.72C82.336 62.208 83.104 61.7173 83.872 61.248C84.64 60.7787 85.408 60.2987 86.176 59.808C86.944 59.3173 87.712 58.8373 88.48 58.368L88.48 49.472C87.456 51.9467 86.3147 53.8347 85.056 55.136C83.7973 56.4373 82.496 57.3333 81.152 57.824C79.808 58.3147 78.4533 58.56 77.088 58.56C74.784 58.56 72.736 57.9413 70.944 56.704C69.152 55.4667 67.7547 53.6427 66.752 51.232C65.7493 48.8213 65.248 45.9093 65.248 42.496C65.248 40.32 65.4507 38.304 65.856 36.448C66.2613 34.592 66.8693 32.9173 67.68 31.424C68.4907 29.9307 69.4827 28.6507 70.656 27.584C71.8293 26.5173 73.1947 25.696 74.752 25.12C76.3093 24.544 78.048 24.256 79.968 24.256C81.0347 24.256 82.016 24.3307 82.912 24.48C83.808 24.6293 84.7147 24.8853 85.632 25.248C86.5493 25.6107 87.4987 26.0907 88.48 26.688L88.48 25.664C88.48 25.28 88.6187 24.992 88.896 24.8C89.1733 24.608 89.6107 24.512 90.208 24.512C90.7626 24.512 91.1786 24.608 91.456 24.8C91.7333 24.992 91.872 25.28 91.872 25.664L91.872 67.008C91.872 69.4827 91.616 71.7013 91.104 73.664C90.592 75.6267 89.8347 77.3013 88.832 78.688C87.8293 80.0747 86.6133 81.1307 85.184 81.856C83.7547 82.5813 82.1013 82.944 80.224 82.944L80.224 82.944ZM80.672 79.744C82.2507 79.744 83.6267 79.2533 84.8 78.272C85.9733 77.2907 86.88 75.8613 87.52 73.984C88.16 72.1067 88.48 69.8667 88.48 67.264L88.48 61.824C87.84 62.208 87.1893 62.6027 86.528 63.008C85.8667 63.4133 85.2267 63.8187 84.608 64.224C83.9893 64.6293 83.36 65.024 82.72 65.408C81.6107 66.2187 80.6187 66.9867 79.744 67.712C78.8693 68.4373 78.1333 69.184 77.536 69.952C76.9387 70.72 76.48 71.4987 76.16 72.288C75.84 73.0773 75.68 73.9413 75.68 74.88C75.68 75.8187 75.872 76.6613 76.256 77.408C76.64 78.1547 77.2053 78.7307 77.952 79.136C78.6987 79.5413 79.6053 79.744 80.672 79.744L80.672 79.744ZM77.664 55.36C79.1146 55.36 80.544 54.944 81.952 54.112C83.36 53.28 84.6293 51.9253 85.76 50.048C86.8906 48.1707 87.7973 45.6533 88.48 42.496L88.48 30.016C86.944 28.992 85.4933 28.288 84.128 27.904C82.7626 27.52 81.4186 27.328 80.096 27.328C78.688 27.328 77.3973 27.5413 76.224 27.968C75.0506 28.3947 74.0053 29.0133 73.088 29.824C72.1706 30.6347 71.4026 31.648 70.784 32.864C70.1653 34.08 69.6853 35.4667 69.344 37.024C69.0026 38.5813 68.832 40.32 68.832 42.24C68.832 44.7573 69.152 47.008 69.792 48.992C70.432 50.976 71.4026 52.5333 72.704 53.664C74.0053 54.7947 75.6586 55.36 77.664 55.36L77.664 55.36ZM92.424 60.352C92.0827 60.5653 91.7733 60.576 91.496 60.384C91.2187 60.192 91.0267 59.9147 90.92 59.552C90.8133 59.1893 90.8027 58.816 90.888 58.432C90.9733 58.048 91.1867 57.7707 91.528 57.6C93.192 56.576 94.7813 55.584 96.296 54.624C97.8107 53.664 99.208 52.6613 100.488 51.616C101.768 50.5707 102.888 49.472 103.848 48.32C104.808 47.168 105.597 45.8987 106.216 44.512C106.835 43.1253 107.229 41.6 107.4 39.936C107.443 39.5093 107.656 39.2427 108.04 39.136C108.424 39.0293 108.787 39.0507 109.128 39.2C109.469 39.3493 109.619 39.6373 109.576 40.064C109.448 41.9413 109.096 43.6587 108.52 45.216C107.944 46.7733 107.187 48.224 106.248 49.568C105.309 50.912 104.168 52.1813 102.824 53.376C101.48 54.5707 99.944 55.7333 98.216 56.864C96.488 57.9947 94.5573 59.1573 92.424 60.352L92.424 60.352ZM119.856 58.56C117.552 58.56 115.515 57.9413 113.744 56.704C111.973 55.4667 110.587 53.6533 109.584 51.264C108.581 48.8747 108.08 45.952 108.08 42.496C108.08 40.32 108.283 38.304 108.688 36.448C109.093 34.592 109.691 32.9173 110.48 31.424C111.269 29.9307 112.261 28.6507 113.456 27.584C114.651 26.5173 116.027 25.696 117.584 25.12C119.141 24.544 120.88 24.256 122.8 24.256C124.421 24.256 126.011 24.5227 127.568 25.056C129.125 25.5893 130.672 26.368 132.208 27.392L132.208 30.656C130.501 29.376 128.891 28.512 127.376 28.064C125.861 27.616 124.357 27.392 122.864 27.392C121.499 27.392 120.229 27.6053 119.056 28.032C117.883 28.4587 116.837 29.0773 115.92 29.888C115.003 30.6987 114.224 31.7013 113.584 32.896C112.944 34.0907 112.464 35.4667 112.144 37.024C111.824 38.5813 111.664 40.3413 111.664 42.304C111.664 44.8213 111.984 47.0613 112.624 49.024C113.264 50.9867 114.235 52.5333 115.536 53.664C116.837 54.7947 118.469 55.36 120.432 55.36C122.011 55.36 123.536 54.8907 125.008 53.952C126.48 53.0133 127.792 51.4987 128.944 49.408C130.096 47.3173 131.013 44.5653 131.696 41.152L132.912 44.288C132.101 47.9573 130.981 50.8373 129.552 52.928C128.123 55.0187 126.565 56.48 124.88 57.312C123.195 58.144 121.52 58.56 119.856 58.56L119.856 58.56ZM138.672 58.56C137.392 58.56 136.283 58.368 135.344 57.984C134.405 57.6 133.637 57.0347 133.04 56.288C132.443 55.5413 131.995 54.6133 131.696 53.504C131.397 52.3947 131.248 51.0933 131.248 49.6L131.248 25.728C131.248 25.3013 131.387 24.992 131.664 24.8C131.941 24.608 132.379 24.512 132.976 24.512C133.531 24.512 133.947 24.608 134.224 24.8C134.501 24.992 134.64 25.3013 134.64 25.728L134.64 49.536C134.64 51.5413 134.949 53.0347 135.568 54.016C136.187 54.9973 137.349 55.488 139.056 55.488C139.397 55.488 139.664 55.648 139.856 55.968C140.048 56.288 140.133 56.64 140.112 57.024C140.091 57.408 139.973 57.76 139.76 58.08C139.547 58.4 139.184 58.56 138.672 58.56L138.672 58.56ZM139.544 58.56C139.032 58.56 138.659 58.4 138.424 58.08C138.189 57.76 138.093 57.408 138.136 57.024C138.179 56.64 138.36 56.288 138.68 55.968C139 55.648 139.416 55.488 139.928 55.488C141.08 55.488 142.157 55.1787 143.16 54.56C144.163 53.9413 145.176 52.9493 146.2 51.584C147.224 50.2187 148.312 48.4053 149.464 46.144C150.616 43.8827 151.896 41.088 153.304 37.76C153.517 37.2907 153.805 37.0667 154.168 37.088C154.531 37.1093 154.84 37.2907 155.096 37.632C155.352 37.9733 155.373 38.3787 155.16 38.848C153.88 42.2613 152.621 45.216 151.384 47.712C150.147 50.208 148.909 52.256 147.672 53.856C146.435 55.456 145.155 56.64 143.832 57.408C142.509 58.176 141.08 58.56 139.544 58.56L139.544 58.56ZM155.712 58.432C155.157 58.432 154.752 58.336 154.496 58.144C154.24 57.952 154.112 57.6427 154.112 57.216L154.112 13.824C154.112 10.624 154.389 8.01067 154.944 5.984C155.499 3.95733 156.331 2.45333 157.44 1.472C158.549 0.490669 159.915 1.90735e-06 161.536 0C163.2 1.90735e-06 164.501 0.39467 165.44 1.184C166.379 1.97333 167.051 3.06133 167.456 4.448C167.861 5.83467 168.064 7.424 168.064 9.216C168.064 10.368 167.979 11.5627 167.808 12.8C167.637 14.0373 167.381 15.296 167.04 16.576C166.699 17.856 166.283 19.168 165.792 20.512C165.301 21.856 164.736 23.2533 164.096 24.704C163.456 26.1547 162.741 27.6373 161.952 29.152C161.163 30.6667 160.309 32.224 159.392 33.824C158.475 35.424 157.483 37.0773 156.416 38.784L155.712 36.096C156.48 34.6453 157.216 33.2053 157.92 31.776C158.624 30.3467 159.275 28.9387 159.872 27.552C160.469 26.1653 161.013 24.8107 161.504 23.488C161.995 22.1653 162.432 20.8747 162.816 19.616C163.2 18.3573 163.531 17.1413 163.808 15.968C164.085 14.7947 164.288 13.6427 164.416 12.512C164.544 11.3813 164.608 10.2827 164.608 9.216C164.608 8.192 164.533 7.22133 164.384 6.304C164.235 5.38667 163.936 4.64001 163.488 4.064C163.04 3.488 162.368 3.2 161.472 3.2C160.576 3.20001 159.829 3.59467 159.232 4.384C158.635 5.17334 158.197 6.44267 157.92 8.192C157.643 9.94133 157.504 12.2027 157.504 14.976L157.504 57.216C157.504 57.6427 157.355 57.952 157.056 58.144C156.757 58.336 156.309 58.432 155.712 58.432L155.712 58.432ZM176.768 58.56C175.445 58.56 174.176 58.3573 172.96 57.952C171.744 57.5467 170.421 56.8107 168.992 55.744C167.563 54.6773 165.92 53.1627 164.064 51.2C162.208 49.2373 160.021 46.6773 157.504 43.52L156.992 43.52L156.992 41.408C159.211 41.0667 161.301 40.5867 163.264 39.968C165.227 39.3493 166.965 38.6133 168.48 37.76C169.995 36.9067 171.168 35.9253 172 34.816C172.832 33.7067 173.248 32.512 173.248 31.232C173.248 29.9947 172.939 29.0667 172.32 28.448C171.701 27.8293 170.837 27.52 169.728 27.52C168.448 27.52 167.115 27.9787 165.728 28.896C164.341 29.8133 162.944 31.2853 161.536 33.312C160.128 35.3387 158.677 37.9947 157.184 41.28L156.48 38.208C157.589 35.6053 158.837 33.2587 160.224 31.168C161.611 29.0773 163.157 27.4133 164.864 26.176C166.571 24.9387 168.427 24.32 170.432 24.32C172.437 24.32 173.995 24.9067 175.104 26.08C176.213 27.2533 176.768 28.8 176.768 30.72C176.768 32.1707 176.448 33.4827 175.808 34.656C175.168 35.8293 174.315 36.8853 173.248 37.824C172.181 38.7627 170.965 39.584 169.6 40.288C168.235 40.992 166.837 41.5787 165.408 42.048C163.979 42.5173 162.603 42.88 161.28 43.136C163.584 45.8667 165.536 48.0533 167.136 49.696C168.736 51.3387 170.123 52.576 171.296 53.408C172.469 54.24 173.515 54.7947 174.432 55.072C175.349 55.3493 176.256 55.488 177.152 55.488C177.621 55.488 177.963 55.648 178.176 55.968C178.389 56.288 178.475 56.64 178.432 57.024C178.389 57.408 178.229 57.76 177.952 58.08C177.675 58.4 177.28 58.56 176.768 58.56L176.768 58.56ZM177.64 58.56C177.171 58.56 176.819 58.4 176.584 58.08C176.349 57.76 176.243 57.408 176.264 57.024C176.285 56.64 176.445 56.288 176.744 55.968C177.043 55.648 177.469 55.488 178.024 55.488C179.005 55.488 180.051 55.2747 181.16 54.848C182.269 54.4213 183.528 53.7493 184.936 52.832C186.344 51.9147 187.987 50.7093 189.864 49.216C190.163 48.96 190.483 48.896 190.824 49.024C191.165 49.152 191.443 49.3653 191.656 49.664C191.869 49.9627 191.965 50.304 191.944 50.688C191.923 51.072 191.741 51.392 191.4 51.648C189.395 53.2267 187.571 54.5387 185.928 55.584C184.285 56.6293 182.792 57.3867 181.448 57.856C180.104 58.3253 178.835 58.56 177.64 58.56L177.64 58.56ZM202.128 58.56C199.056 58.56 196.475 57.8347 194.384 56.384C192.293 54.9333 190.715 52.8853 189.648 50.24C188.581 47.5947 188.048 44.5227 188.048 41.024C188.048 38.72 188.368 36.544 189.008 34.496C189.648 32.448 190.555 30.656 191.728 29.12C192.901 27.584 194.309 26.3893 195.952 25.536C197.595 24.6827 199.397 24.256 201.36 24.256C203.195 24.256 204.688 24.5973 205.84 25.28C206.992 25.9627 207.845 26.8587 208.4 27.968C208.955 29.0773 209.232 30.272 209.232 31.552C209.232 32.9173 208.944 34.3147 208.368 35.744C207.792 37.1733 206.885 38.656 205.648 40.192C204.411 41.728 202.8 43.3813 200.816 45.152C198.832 46.9227 196.453 48.8533 193.68 50.944L191.248 49.088C193.851 47.1253 196.059 45.3333 197.872 43.712C199.685 42.0907 201.168 40.5973 202.32 39.232C203.472 37.8667 204.315 36.5653 204.848 35.328C205.381 34.0907 205.648 32.9173 205.648 31.808C205.648 30.4 205.221 29.312 204.368 28.544C203.515 27.776 202.384 27.392 200.976 27.392C199.867 27.392 198.757 27.6907 197.648 28.288C196.539 28.8853 195.525 29.76 194.608 30.912C193.691 32.064 192.965 33.4827 192.432 35.168C191.899 36.8533 191.632 38.7627 191.632 40.896C191.632 44.3947 192.144 47.2107 193.168 49.344C194.192 51.4773 195.515 53.0347 197.136 54.016C198.757 54.9973 200.464 55.488 202.256 55.488C203.835 55.488 205.189 55.2 206.32 54.624C207.451 54.048 208.443 53.3333 209.296 52.48C210.149 51.6267 210.875 50.8373 211.472 50.112C211.813 49.7707 212.155 49.6107 212.496 49.632C212.837 49.6533 213.179 49.792 213.52 50.048C213.861 50.304 214.096 50.6027 214.224 50.944C214.352 51.2853 214.288 51.6267 214.032 51.968C213.264 53.0773 212.283 54.144 211.088 55.168C209.893 56.192 208.539 57.0133 207.024 57.632C205.509 58.2507 203.877 58.56 202.128 58.56L202.128 58.56Z" fill="#A47764" transform="translate(95.664 16.899)" />
  </g>
</svg>